<?xml version="1.0" encoding="iso-8859-1"?>
<!-- Generator: Adobe Illustrator 19.0.0, SVG Export Plug-In . SVG Version: 6.00 Build 0)  -->
<svg xmlns="http://www.w3.org/2000/svg" xmlns:xlink="http://www.w3.org/1999/xlink" version="1.1" id="Capa_1" x="0px" y="0px" viewBox="0 0 512 512" style="enable-background:new 0 0 512 512;" xml:space="preserve" width="512px" height="512px">
<g>
	<g>
		<path d="M208.643,91.519c-4.388,0-7.222,1.993-7.222,5.079v27.686c-15.778-30.493-15.23-32.765-23.213-32.765    c-4.32,0-7.223,2.075-7.223,5.165v55.64c0,6.963,14.448,6.811,14.448-0.001v-27.881l15.335,28.674    c3.821,6.969,15.099,4.89,15.099-0.793V96.598C215.865,93.559,212.964,91.519,208.643,91.519z" fill="#D80027"/>
	</g>
</g>
<g>
	<g>
		<path d="M259.912,144.416h-22.612v-13.932h11.381c3.355,0,5.164-3.058,5.164-5.936c0-3.482-2.221-6.107-5.164-6.107h-11.381    v-13.847h22.612v-0.001c6.825,0,6.929-13.074,0-13.074h-30.521c-3.787,0-6.537,2.172-6.537,5.165v55.64    c0,2.992,2.75,5.166,6.537,5.166h30.521C266.846,157.491,266.735,144.416,259.912,144.416z" fill="#D80027"/>
	</g>
</g>
<g>
	<g>
		<path d="M344.73,97.627c0-5.684-12.383-8.994-14.038-2.691l-11.821,40.55l-5.822-23.841c-1.401-5.836-12.697-5.839-14.097-0.007    l-5.825,23.849l-11.81-40.508c-0.578-2.199-2.502-3.46-5.283-3.46c-4.193,0-10.073,2.995-8.518,7.632l16.97,53.903    c0.9,3.007,4.381,4.948,8.868,4.948c3.482,0,7.854-1.322,8.719-5.035l3.955-16.433l3.893,16.422    c1.526,6.526,15.313,6.937,17.585,0.12C345.822,94.896,344.73,98.698,344.73,97.627z" fill="#D80027"/>
	</g>
</g>
<g>
	<g>
		<path d="M186.638,180.908c0.001-3.889-5.254-6.278-9.024-6.278c-2.774,0-3.946,1.493-4.803,3.106l-11.653,22.014l-11.56-21.98    c-1.102-2.201-2.567-3.141-4.905-3.141c-4.382,0-10.569,3.188-8.651,8.002c0.016,0.027,17.846,30.901,17.862,30.928    c0.042,0.179,0.027,21.692,0.027,21.876c0,3.391,3.633,5.164,7.222,5.164c4.251,0,7.22-2.124,7.22-5.164    c0-0.195-0.037-21.638,0.066-21.804C187.676,180.214,186.638,182.478,186.638,180.908z" fill="#D80027"/>
	</g>
</g>
<g>
	<g>
		<path d="M226.312,227.528h-22.613v-13.933h11.383c3.354,0,5.164-3.059,5.164-5.937c0-3.482-2.22-6.108-5.164-6.108h-11.383    v-13.847h22.613c6.834,0,6.923-13.073,0-13.073h-30.521c-3.787,0-6.536,2.172-6.536,5.164v55.642c0,2.992,2.749,5.164,6.536,5.164    h30.521C233.252,240.601,233.13,227.528,226.312,227.528z" fill="#D80027"/>
	</g>
</g>
<g>
	<g>
		<path d="M285.913,233.251l-16.616-54.187c-1.996-6.654-15.496-6.603-17.474-0.01c-0.051,0.165-16.531,53.868-16.578,54.034    c-0.115,0.464-0.214,0.863-0.214,1.232c0,6.021,12.399,9.099,14.038,2.854l2.916-10.206h17.144l2.908,10.173    c1.662,6.351,14.048,3.097,14.048-2.82C286.085,233.905,285.993,233.557,285.913,233.251z M255.238,214.924l5.276-18.617    l5.275,18.617H255.238z" fill="#D80027"/>
	</g>
</g>
<g>
	<g>
		<path d="M334.838,231.287l-10.265-19.044c6.805-2.871,10.522-9.204,10.522-18.046c0-12.802-7.596-19.567-21.968-19.567h-16.978    c-2.941,0-5.248,2.23-5.248,5.079v55.727c0,6.814,14.444,6.956,14.444,0v-20.727h4.545l11.704,22.75    C325.964,246.199,338.788,236.828,334.838,231.287z M305.345,202.664v-14.962c9.004,0,15.304-1.397,15.304,7.523    C320.649,204.156,314.343,202.664,305.345,202.664z" fill="#D80027"/>
	</g>
</g>
<g>
	<g>
		<path d="M362.851,228.156c-4.193,0-7.48,3.286-7.48,7.479c0,4.125,3.357,7.479,7.48,7.479c4.053,0,7.479-3.425,7.479-7.479    C370.33,231.58,366.904,228.156,362.851,228.156z" fill="#D80027"/>
	</g>
</g>
<g>
	<g>
		<path d="M355.8,180.651c0.001,11.303,1.116,26.529,1.116,37.723c0,6.782,11.7,6.33,11.7,0c0-11.201,1.201-26.398,1.201-37.723    C369.816,172.27,355.8,172.05,355.8,180.651z" fill="#D80027"/>
	</g>
</g>
<g>
	<g>
		<path d="M291.847,50.84h-70.219c-4.142,0-7.5,3.357-7.5,7.5c0,4.142,3.358,7.5,7.5,7.5h70.219c4.143,0,7.5-3.357,7.5-7.5    S295.99,50.84,291.847,50.84z" fill="#D80027"/>
	</g>
</g>
<g>
	<g>
		<path d="M291.847,265.616h-70.219c-4.142,0-7.5,3.357-7.5,7.5c0,4.142,3.358,7.5,7.5,7.5h70.219c4.143,0,7.5-3.358,7.5-7.5    C299.347,268.973,295.99,265.616,291.847,265.616z" fill="#D80027"/>
	</g>
</g>
<g>
	<g>
		<path d="M470.189,370.595c-4.143,0-7.5,3.357-7.5,7.5v108.088c0,5.963-4.852,10.815-10.815,10.815H274.239    c-4.143,0-7.5,3.357-7.5,7.5s3.357,7.5,7.5,7.5h177.636c14.235,0,25.816-11.581,25.816-25.816V378.096    C477.69,373.954,474.333,370.595,470.189,370.595z" fill="#D80027"/>
	</g>
</g>
<g>
	<g>
		<path d="M462.475,189.958l-37.74-31.636V18.25C424.734,8.187,416.547,0,406.485,0H105.515c-10.063,0-18.25,8.187-18.25,18.25    v140.072l-37.739,31.635c-8.963,4.053-15.217,13.072-15.217,23.529v272.697C34.309,500.419,45.89,512,60.125,512h179.111    c4.143,0,7.5-3.357,7.5-7.5s-3.357-7.5-7.5-7.5H60.125c-5.963,0-10.815-4.852-10.815-10.815v-270.46l40.637,34.062l115.179,96.545    c-2.277,4.571-1.315,9.871,2.233,13.332l16.019,15.613l-3.78,22.039c-0.745,4.325,0.999,8.617,4.549,11.197    c3.658,2.66,8.344,2.822,12.053,0.873l19.797-10.41c21.333,11.216,21.467,11.724,25.122,11.724c2.428,0,4.75-0.754,6.728-2.186    c3.549-2.579,5.293-6.868,4.551-11.192l-3.78-22.045l16.022-15.615c3.142-3.064,4.249-7.56,2.893-11.727    c-0.226-0.694-0.531-1.342-0.871-1.965c133.63-111.466,99.524-82.973,156.026-130.26v127.384c0,4.143,3.357,7.5,7.5,7.5    c4.143,0,7.5-3.357,7.5-7.5V213.485C477.69,203.029,471.436,194.011,462.475,189.958z M87.265,227.964L57.5,203.016    c2.2-0.563,1.976-0.344,29.765-0.344V227.964z M87.265,187.671H75.605l11.661-9.775V187.671z M275.327,367.286    c-1.769,1.724-2.575,4.206-2.157,6.639l3.229,18.827l-16.908-8.89c-2.185-1.148-4.795-1.148-6.98,0l-16.907,8.891l3.229-18.828    c0.417-2.433-0.39-4.915-2.157-6.639l-13.681-13.334l18.905-2.747c2.442-0.354,4.555-1.889,5.647-4.103L256,329.973l8.455,17.129    c1.093,2.214,3.204,3.748,5.647,4.103l18.905,2.747L275.327,367.286z M409.733,240.461l-118.307,98.685l-15.266-2.219    l-9.896-20.047c-1.938-3.94-5.871-6.389-10.267-6.389c-4.389,0-8.321,2.445-10.262,6.379l-9.899,20.057l-15.836,2.301    l-117.737-98.69c0.002-6.379,0.002-219.041,0.002-222.287c0-1.792,1.457-3.249,3.248-3.249h300.97    c1.791,0,3.248,1.457,3.248,3.249C409.733,24.607,409.733,235.852,409.733,240.461z M424.734,177.897l11.662,9.775h-11.662    V177.897z M424.734,227.914v-25.242c28.531,0,27.855-0.131,29.754,0.34L424.734,227.914z" fill="#D80027"/>
	</g>
</g>
<g>
</g>
<g>
</g>
<g>
</g>
<g>
</g>
<g>
</g>
<g>
</g>
<g>
</g>
<g>
</g>
<g>
</g>
<g>
</g>
<g>
</g>
<g>
</g>
<g>
</g>
<g>
</g>
<g>
</g>
</svg>
