<?xml version="1.0" encoding="iso-8859-1"?>
<!-- Generator: Adobe Illustrator 19.0.0, SVG Export Plug-In . SVG Version: 6.00 Build 0)  -->
<svg version="1.1" id="Capa_1" xmlns="http://www.w3.org/2000/svg" xmlns:xlink="http://www.w3.org/1999/xlink" x="0px" y="0px"
	 viewBox="0 0 511.999 511.999" style="enable-background:new 0 0 511.999 511.999;" xml:space="preserve">
<path style="fill:#BABABA;" d="M67.591,84.859c-13.671,3.271-8.772,1.969-22.943,6.136l-14.202,4.176
	c-5.849,1.72-9.195,7.856-7.476,13.703l44.621,144.715V84.859z"/>
<path style="fill:#A59F9F;" d="M41.097,92.039l-10.652,3.132c-5.849,1.72-9.195,7.856-7.476,13.703l44.622,144.715v-74.644
	C39.374,87.432,41.229,93.868,41.097,92.039z"/>
<g>
	<path style="fill:#BABABA;" d="M380.108,56.935l-13.8-49.008c-1.72-5.849-7.856-9.196-13.705-7.476
		c-53.637,15.77-20.098,5.622-185.063,56.484C176.137,56.935,368.49,56.935,380.108,56.935z"/>
	<path style="fill:#BABABA;" d="M489.03,425.319L421.318,202.07v254.054c24.58-6.479,12.534-3.076,60.234-17.101
		C487.401,437.303,490.75,431.168,489.03,425.319z"/>
</g>
<path style="fill:#E5E1E1;" d="M412.35,54.863c-5.936,0-321.222,0-335.792,0c-6.097,0-11.038,4.942-11.038,11.038v435.06
	c0,6.097,4.941,11.038,11.038,11.038c9.857,0,16.593,0,27.113,0h14.803c14.482,0,276.614,0,293.876,0
	c6.097,0,11.04-4.941,11.04-11.038V65.901C423.39,59.805,418.446,54.863,412.35,54.863z"/>
<path style="fill:#D1CFCF;" d="M87.171,500.961V65.901c0-6.096,4.941-11.038,11.038-11.038c-7.654,0-12.525,0-21.651,0
	c-6.097,0-11.038,4.942-11.038,11.038v435.06c0,6.097,4.941,11.038,11.038,11.038c9.228,0,13.874,0,21.651,0
	C92.112,511.999,87.171,507.058,87.171,500.961z"/>
<path style="fill:#EA473B;" d="M423.39,131.483h-44.932c-26.454-45.799-75.945-76.62-132.635-76.62
	c-56.691,0-106.181,30.822-132.635,76.62H65.52v307.95h50.103c59.918,96.704,200.5,96.676,260.401,0h47.366L423.39,131.483
	L423.39,131.483z"/>
<rect x="65.52" y="131.479" style="fill:#D63322;" width="21.652" height="307.95"/>
<g>
	<path style="fill:#F5F5F5;" d="M168.119,319.756c3.44,0,6.925-1.7,6.925-4.951v-26.72l14.696,27.48
		c1.524,2.78,4.064,4.19,7.548,4.19c3.44,0,6.923-1.7,6.923-4.951v-53.409c0-2.91-2.783-4.868-6.923-4.868
		c-4.204,0-6.92,1.912-6.92,4.868v26.535l-12.879-24.888c-2.689-5.113-4.702-6.514-9.37-6.514c-4.141,0-6.923,1.99-6.923,4.95
		v53.327C161.196,317.72,164.044,319.756,168.119,319.756z"/>
	<path style="fill:#F5F5F5;" d="M217.175,319.756h29.25c3.25,0,4.952-3.111,4.952-6.184c0-3.677-2.082-6.346-4.952-6.346h-21.67
		v-13.352h10.905c3.217,0,4.952-2.933,4.952-5.69c0-3.337-2.128-5.855-4.952-5.855h-10.905v-13.27h21.67
		c2.87,0,4.952-2.669,4.952-6.346c0-3.072-1.701-6.184-4.952-6.184h-29.25c-3.63,0-6.266,2.082-6.266,4.95v53.327
		C210.908,317.674,213.545,319.756,217.175,319.756z"/>
	<path style="fill:#F5F5F5;" d="M319.312,256.528c-2.664,0-4.507,1.21-5.05,3.275l-11.33,38.863l-5.58-22.849
		c-0.611-2.534-3.245-4.171-6.718-4.171c-3.575,0-6.177,1.597-6.794,4.163l-5.583,22.857l-11.317-38.824
		c-0.556-2.105-2.4-3.315-5.066-3.315c-3.506,0-8.398,2.227-8.398,5.854c0,0.55,0.123,1.125,0.234,1.462l16.264,51.662
		c0.866,2.881,4.202,4.742,8.5,4.742c3.337,0,7.527-1.267,8.357-4.826l3.791-15.75l3.73,15.741c0.836,3.568,5.025,4.835,8.362,4.835
		c4.268,0,7.52-1.8,8.491-4.722l16.264-51.663c0.118-0.358,0.244-0.934,0.244-1.481C327.714,258.754,322.82,256.528,319.312,256.528
		z"/>
	<path style="fill:#F5F5F5;" d="M176.039,332.949c-2.658,0-3.78,1.43-4.602,2.978l-11.168,21.098l-11.078-21.065
		c-1.056-2.11-2.46-3.01-4.701-3.01c-3.613,0-8.649,2.29-8.649,6.019c0,0.477,0.129,1.08,0.357,1.651
		c0.015,0.027,17.104,29.615,17.12,29.641c0.009,0.043,0.025,0.135,0.025,0.26v20.706c0,3.249,3.483,4.949,6.921,4.949
		c4.075,0,6.921-2.035,6.921-4.949v-20.706c0-0.042,0.035-0.146,0.064-0.191l16.969-29.477c0.471-0.787,0.471-1.557,0.471-1.884
		C184.688,335.239,179.652,332.949,176.039,332.949z"/>
	<path style="fill:#F5F5F5;" d="M222.709,345.478c2.871,0,4.952-2.668,4.952-6.346c0-3.072-1.699-6.182-4.952-6.182h-29.25
		c-3.628,0-6.264,2.082-6.264,4.949v53.327c0,2.868,2.636,4.949,6.264,4.949h29.25c3.253,0,4.952-3.11,4.952-6.182
		c0-3.678-2.082-6.347-4.952-6.347h-21.671v-13.352h10.909c3.216,0,4.949-2.933,4.949-5.691c0-3.337-2.126-5.854-4.949-5.854
		h-10.909v-13.271L222.709,345.478L222.709,345.478z"/>
	<path style="fill:#F5F5F5;" d="M263.909,337.198c-0.878-2.926-4.103-4.742-8.417-4.742c-4.198,0-7.47,1.861-8.332,4.733
		l-15.857,51.683l-0.03,0.104c-0.111,0.444-0.204,0.827-0.204,1.181c0,3.874,4.919,6.018,8.319,6.018
		c3.718,0,4.819-2.078,5.136-3.283l2.794-9.781h16.429l2.788,9.749c0.325,1.237,1.427,3.315,5.146,3.315
		c3.472,0,8.317-2.289,8.317-6.018c0-0.398-0.087-0.732-0.163-1.026L263.909,337.198z M260.547,371.567h-10.11l5.056-17.843
		L260.547,371.567z"/>
	<path style="fill:#F5F5F5;" d="M316.886,368.997c6.522-2.75,10.083-8.82,10.083-17.294c0-12.269-7.279-18.754-21.054-18.754h-16.27
		c-2.821,0-5.031,2.138-5.031,4.868v53.409c0,3.249,3.484,4.949,6.92,4.949c4.077,0,6.925-2.035,6.925-4.949v-19.865h4.357
		l11.216,21.805c1.072,2.14,2.982,3.421,5.113,3.421c4.079,0,8.237-3.618,8.237-7.17c0-0.385-0.067-1.34-0.657-2.167
		L316.886,368.997z M313.126,352.689c0,5.064-2.09,7.128-7.211,7.128h-7.456v-14.34h7.456
		C310.969,345.478,313.126,347.636,313.126,352.689z"/>
	<path style="fill:#F5F5F5;" d="M345.903,382.331c-4.02,0-7.168,3.149-7.168,7.169c0,3.953,3.216,7.168,7.168,7.168
		c3.886,0,7.168-3.283,7.168-7.168C353.071,385.614,349.789,382.331,345.903,382.331z"/>
	<path style="fill:#F5F5F5;" d="M340.214,374.874c0,2.858,2.201,4.705,5.608,4.705c2.718,0,5.606-1.649,5.606-4.705
		c0-5.386,0.293-11.802,0.574-18.004c0.284-6.238,0.577-12.689,0.577-18.149c0-3.534-2.843-6.1-6.756-6.1
		c-3.933,0-6.677,2.509-6.677,6.1c0,5.457,0.273,11.907,0.536,18.144C339.944,363.07,340.214,369.484,340.214,374.874z"/>
	<path style="fill:#F5F5F5;" d="M171.276,185.076c0-2.991-2.749-4.923-7.006-4.923c-4.26,0-7.01,1.932-7.01,4.923v19.304h-13.517
		v-19.304c0-2.991-2.75-4.923-7.007-4.923c-4.256,0-7.009,1.932-7.009,4.923v52.772c0,2.949,2.884,5.008,7.009,5.008
		c4.127,0,7.007-2.06,7.007-5.008v-21.461h13.517v21.461c0,6.688,14.016,6.697,14.016,0L171.276,185.076L171.276,185.076z"/>
	<path style="fill:#F5F5F5;" d="M221.593,235.283l-14.503-50.6c-0.894-3.054-4.36-5.029-8.823-5.029s-7.927,1.981-8.829,5.047
		c-15.211,53.376-14.622,51.025-14.622,51.821c0,5.797,11.989,9.196,13.596,3.166l2.444-9.609h14.899l2.45,9.634
		c0.313,1.17,1.364,3.144,4.875,3.144c3.64,0,8.714-2.41,8.714-6.335C221.795,236.141,221.702,235.744,221.593,235.283z
		 M193.861,218.07l4.406-17.309l4.407,17.309H193.861z"/>
	<path style="fill:#F5F5F5;" d="M266.106,200.261c0-12.968-6.84-20.108-19.261-20.108h-16.054c-3.111,0-5.456,2.116-5.456,4.923
		v52.772c0,2.949,2.881,5.008,7.006,5.008c4.127,0,7.009-2.06,7.009-5.008v-16.897h6.72c12.734,0,20.037-7.39,20.037-20.275v-0.415
		H266.106z M252.09,201.672c0,4.826-2.025,7.271-6.021,7.271h-6.72v-15.455h6.72c3.996,0,6.021,2.446,6.021,7.27V201.672z"/>
	<path style="fill:#F5F5F5;" d="M310.238,200.261c0-12.968-6.84-20.108-19.262-20.108h-16.054c-3.11,0-5.456,2.116-5.456,4.923
		v52.772c0,2.949,2.88,5.008,7.007,5.008c4.125,0,7.008-2.06,7.008-5.008v-16.897h6.721c12.733,0,20.037-7.39,20.037-20.275
		L310.238,200.261L310.238,200.261z M296.222,201.672c0,4.826-2.026,7.271-6.021,7.271h-6.721v-15.455h6.721
		c3.995,0,6.021,2.446,6.021,7.27V201.672z"/>
	<path style="fill:#F5F5F5;" d="M342.741,217.021c0-0.228,0.06-0.445,0.18-0.644l16.011-28.533c1.771-3.754-4.078-7.692-8.929-7.692
		c-2.402,0-3.436,1.123-4.33,2.937l-9.942,19.668l-10.033-19.701c-0.856-1.585-1.776-2.905-4.311-2.905
		c-3.656,0-9.18,2.526-9.18,6.335c0,0.308,0,0.822,0.256,1.371l16.125,28.59c0.064,0.106,0.137,0.321,0.137,0.572v20.827
		c0,2.949,2.883,5.008,7.009,5.008s7.009-2.06,7.009-5.008v-20.825H342.741z"/>
</g>
<g>
	<path style="fill:#FFA92C;" d="M191.128,448.229c-1.956,0-3.914-0.734-5.424-2.208c-3.071-2.996-3.132-7.915-0.136-10.986
		l14.506-14.869c2.996-3.072,7.915-3.132,10.986-0.136s3.132,7.915,0.136,10.986l-14.505,14.869
		C195.167,447.446,193.148,448.229,191.128,448.229z"/>
	<path style="fill:#FFA92C;" d="M300.519,448.229c-2.02,0-4.039-0.783-5.561-2.343l-14.508-14.869
		c-2.996-3.071-2.936-7.99,0.135-10.986c3.07-2.996,7.989-2.937,10.986,0.135l14.508,14.869c2.996,3.071,2.936,7.99-0.135,10.986
		C304.434,447.495,302.476,448.229,300.519,448.229z"/>
	<path style="fill:#FFA92C;" d="M245.171,462.297c-4.29,0-7.769-3.478-7.769-7.769v-19.86c0-4.29,3.478-7.769,7.769-7.769
		s7.769,3.478,7.769,7.769v19.86C252.94,458.819,249.462,462.297,245.171,462.297z"/>
	<path style="fill:#FFA92C;" d="M200.073,157.829l-14.506-14.869c-2.996-3.071-2.935-7.99,0.136-10.986
		c3.071-2.996,7.99-2.935,10.986,0.136l14.505,14.869c2.996,3.071,2.935,7.99-0.136,10.986
		C207.988,160.96,203.07,160.9,200.073,157.829z"/>
	<path style="fill:#FFA92C;" d="M286.011,160.173c-1.956,0-3.914-0.734-5.425-2.208c-3.071-2.996-3.131-7.915-0.135-10.986
		l14.508-14.869c2.997-3.071,7.915-3.132,10.986-0.135c3.071,2.996,3.131,7.915,0.135,10.986l-14.508,14.869
		C290.049,159.389,288.031,160.173,286.011,160.173z"/>
	<path style="fill:#FFA92C;" d="M245.171,151.096c-4.29,0-7.769-3.478-7.769-7.769v-19.86c0-4.29,3.478-7.769,7.769-7.769
		s7.769,3.478,7.769,7.769v19.86C252.94,147.618,249.462,151.096,245.171,151.096z"/>
</g>
<g>
</g>
<g>
</g>
<g>
</g>
<g>
</g>
<g>
</g>
<g>
</g>
<g>
</g>
<g>
</g>
<g>
</g>
<g>
</g>
<g>
</g>
<g>
</g>
<g>
</g>
<g>
</g>
<g>
</g>
</svg>
